# xmcd
#
# Track frame offsets:
#	150
#	24319
#	43682
#	63560
#	70657
#	90124
#	111756
#	132340
#	158362
#	174365
#	193763
#	211741
#	232303
#	237852
#
# Disc length: 3376 seconds
#
# Revision: 0
# Processed by: cddbd v1.5.2PL0 Copyright (c) Steve Scherf et al.
# Submitted via: EasyCDDAExtractor 11.5.0.1
#
DISCID=b00d2e0e
DTITLE=Mariah Carey - Rainbow
DYEAR=1900
DGENRE=R&B
TTITLE0=Heartbreaker
TTITLE1=Can´t Take That Away
TTITLE2=Bliss
TTITLE3=How Much
TTITLE4=After Tonight
TTITLE5=X-Girlfriend
TTITLE6=Heartbreaker (Remix)
TTITLE7=Vulnerability
TTITLE8=Against All Odds
TTITLE9=Crybaby
TTITLE10=Did I Do That
TTITLE11=Petals
TTITLE12=Rainbow
TTITLE13=Thank God I Found You
EXTD=
EXTT0=
EXTT1=
EXTT2=
EXTT3=
EXTT4=
EXTT5=
EXTT6=
EXTT7=
EXTT8=
EXTT9=
EXTT10=
EXTT11=
EXTT12=
EXTT13=
PLAYORDER=
